<svg xmlns="http://www.w3.org/2000/svg" width="95" height="30" fill="none" viewBox="0 0 95 30"><path fill="#f60" d="m70.932 28.22 7.849-8.659-7.85-8.66h8.282l3.888 4.207 3.743-4.207h7.993l-7.812 8.625 7.919 8.695h-8.316l-3.852-4.242-3.816 4.242zM70.931 7.019h-8.89V10.9h8.89v5.851h-8.89v5.37h8.89v6.099H55.508V.938H70.93z"/><path fill="#652c8f" d="M49.001.938v11.165h-.072c-1.44-1.626-3.24-2.19-5.328-2.19-4.277 0-7.5 2.855-8.63 6.63-1.29-4.16-4.617-6.708-9.55-6.708-4.005 0-7.168 1.765-8.819 4.642V10.9h-8.28V7.02h9.036V.938H.941V28.22h7.381V16.752h7.357c-.22.843-.336 1.745-.336 2.697 0 5.69 4.428 9.684 10.079 9.684 4.752 0 7.884-2.19 9.54-6.184h-6.325c-.856 1.2-1.505 1.556-3.215 1.556-1.984 0-3.694-1.7-3.694-3.713h12.88c.558 4.52 4.145 8.419 9.066 8.419a6.34 6.34 0 0 0 5.255-2.757h.072v1.766h6.507V.938zM21.934 16.834c.41-1.733 1.779-2.866 3.488-2.866 1.88 0 3.18 1.098 3.522 2.866zm23.119 7.233c-2.399 0-3.889-2.195-3.889-4.485 0-2.45 1.296-4.804 3.889-4.804 2.688 0 3.759 2.355 3.759 4.804 0 2.322-1.136 4.485-3.76 4.485"/></svg>